<svg width="24" height="32" viewBox="0 0 24 32" fill="none" xmlns="http://www.w3.org/2000/svg">
<path d="M18.3288 8.61277C18.1823 8.46632 17.9449 8.46632 17.7984 8.61277L12.0026 14.4086L6.20682 8.61276C6.06037 8.46632 5.82294 8.46632 5.67649 8.61276L4.61583 9.67342C4.46938 9.81987 4.46938 10.0573 4.61583 10.2038L10.4116 15.9996L4.61179 21.7994C4.46534 21.9459 4.46534 22.1833 4.61179 22.3297L5.67245 23.3904C5.81889 23.5369 6.05633 23.5369 6.20278 23.3904L12.0026 17.5906L17.7993 23.3873C17.9458 23.5337 18.1832 23.5337 18.3297 23.3873L19.3903 22.3266C19.5368 22.1802 19.5368 21.9427 19.3903 21.7963L13.5936 15.9996L19.3894 10.2038C19.5359 10.0573 19.5359 9.81987 19.3894 9.67343L18.3288 8.61277Z" fill="#2B2C30"/>
</svg>
