<svg width="16" height="16" viewBox="0 0 16 16" fill="none" xmlns="http://www.w3.org/2000/svg">
<path fill-rule="evenodd" clip-rule="evenodd" d="M8.54885 10.9974H5.99739V5.01095H8.38848C9.70649 5.01095 10.3713 5.64818 10.3713 6.54557C10.3713 7.25004 9.91352 7.69143 9.29242 7.83174V7.8902C9.97184 7.92235 10.6046 8.45728 10.6046 9.34298C10.6046 10.2959 9.89019 10.9974 8.54885 10.9974ZM7.26 8.37251V9.96267H8.28933C8.995 9.96267 9.30117 9.66744 9.30117 9.21728C9.30117 8.72328 8.92501 8.37251 8.31849 8.37251H7.26ZM7.26 6.03403V7.51604H8.19602C8.71215 7.51604 9.09705 7.22958 9.09705 6.75604C9.09705 6.32342 8.77921 6.03403 8.21935 6.03403H7.26Z" fill="#0054AE"/>
<path fill-rule="evenodd" clip-rule="evenodd" d="M14.2906 11.0741C13.1524 13.399 10.7631 15 8 15C4.73807 15 1.99725 12.7689 1.22038 9.74941C1.07651 9.19025 1 8.60406 1 8C1 6.93071 1.23976 5.91742 1.66844 5.01095C2.78966 2.6401 5.2033 1 8 1C10.7665 1 13.1581 2.60483 14.2947 4.9343C14.2998 4.94459 14.3048 4.95489 14.3097 4.96521C14.4962 5.35223 14.6481 5.75903 14.7615 6.18161C14.9171 6.76148 15 7.37105 15 8C15 8.63426 14.9156 9.24883 14.7575 9.83308C14.6407 10.2647 14.4837 10.6798 14.2906 11.0741ZM13.2236 10.9541C12.1928 12.7728 10.2397 14 8 14C5.25212 14 2.93569 12.1528 2.22472 9.63236H3.48237L3.9256 10.9974H5.27861L3.21994 5.01095H2.79638C3.83224 3.21151 5.77464 2 8 2C10.2433 2 12.1991 3.23111 13.2285 5.05457C12.1014 5.39685 11.3212 6.42782 11.3212 8.0042C11.3212 9.57717 12.0895 10.6114 13.2236 10.9541ZM13.692 9.90275C13.8918 9.30487 14 8.66507 14 8C14 7.3388 13.893 6.70258 13.6955 6.1077C13.0215 6.30181 12.6013 6.96769 12.6013 8.0042C12.6013 9.06911 13.027 9.71542 13.692 9.90275ZM2.0342 8.64436C2.01159 8.43267 2 8.21769 2 8C2 7.83006 2.00707 7.66177 2.02092 7.49541L2.38306 6.37896H2.42971L3.16453 8.64436H2.0342Z" fill="#0054AE"/>
</svg>
